<?xml version="1.0" standalone="no"?><!DOCTYPE svg PUBLIC "-//W3C//DTD SVG 1.1//EN" "http://www.w3.org/Graphics/SVG/1.1/DTD/svg11.dtd"><svg t="1509072880080" class="icon" style="" viewBox="0 0 1024 1024" version="1.1" xmlns="http://www.w3.org/2000/svg" p-id="2070" xmlns:xlink="http://www.w3.org/1999/xlink" width="200" height="200"><defs><style type="text/css"></style></defs><path d="M545.240567 906.635989 718.772832 906.635989 718.772832 230.913137 545.240567 116.539226Z" p-id="2071" fill="#BEDB39"></path><path d="M308.132334 546.777061l-48.164976 27.688619L259.967358 432.330496l-142.455479 79.71453 0 130.091894-24.546046 12.815887 0 251.680113 157.800979 0 28.92068 0 28.445866 0 43.856857 0 176.819125 0L528.809339 116.538203 308.132334 249.318322M412.462494 630.328989 351.987145 667.431002l0-91.863221 60.47535-38.124296L412.462494 630.328989 412.462494 630.328989zM501.500367 578.660212l-60.473303 37.863353 0-92.883457 60.473303-38.125319L501.500367 578.660212zM180.108542 705.230909l-42.813085 26.990724 0-65.759703 42.813085-26.990724L180.108542 705.230909zM243.145228 668.651806l-42.813085 26.805506 0-65.757656 42.813085-26.992771L243.145228 668.651806zM410.567331 486.851227l-60.474326 38.124296 0-92.886527 60.474326-38.123272L410.567331 486.851227 410.567331 486.851227zM499.605204 435.183474l-60.473303 37.863353 0-92.88448 60.473303-38.124296L499.605204 435.183474zM410.567331 336.540849l-60.474326 38.124296 0-92.886527 60.474326-38.123272L410.567331 336.540849 410.567331 336.540849zM499.605204 284.873096l-60.473303 37.863353 0-92.883457 60.473303-38.124296L499.605204 284.873096zM177.228959 599.330998l-42.814108 26.990724 0-65.759703 42.814108-26.990724L177.228959 599.330998zM240.265644 562.751894l-42.813085 26.804483L197.452559 523.799744l42.813085-26.991748L240.265644 562.751894z" p-id="2072" fill="#BEDB39"></path><path d="M730.601228 602.322122l0-0.60989L730.601228 905.912511l210.345706 0L940.946934 676.645874 730.601228 602.322122zM817.806359 822.650179l-58.716286-19.281135 0-52.587706 58.716286 19.283182L817.806359 822.650179zM820.438303 750.784408l-58.719356-19.281135 0-52.586682 58.719356 19.282159L820.438303 750.784408zM900.193765 846.312088l-58.719356-19.280112 0-52.586682 58.719356 19.281135L900.193765 846.312088zM902.823662 774.447341l-58.718333-19.284205 0-52.585659 58.718333 19.282159L902.823662 774.447341z" p-id="2073" fill="#BEDB39"></path><path d="M30.962687-464.60455" p-id="2074" fill="#BEDB39"></path></svg>