<?xml version="1.0" standalone="no"?><!DOCTYPE svg PUBLIC "-//W3C//DTD SVG 1.1//EN" "http://www.w3.org/Graphics/SVG/1.1/DTD/svg11.dtd"><svg t="1509072944371" class="icon" style="" viewBox="0 0 1024 1024" version="1.1" xmlns="http://www.w3.org/2000/svg" p-id="2869" xmlns:xlink="http://www.w3.org/1999/xlink" width="200" height="200"><defs><style type="text/css"></style></defs><path d="M870.4 624c-57.6 0-102.4 48-102.4 102.4 0-57.6-48-102.4-102.4-102.4s-102.4 48-102.4 102.4c0 16 6.4 32 12.8 48 3.2 12.8 12.8 22.4 19.2 28.8l176 176 176-176c9.6-9.6 16-19.2 22.4-32 6.4-12.8 9.6-28.8 9.6-44.8C976 668.8 928 624 870.4 624z" p-id="2870" fill="#FFE11A"></path><path d="M809.6 320c0-160-128-288-288-288s-288 128-288 288c0 102.4 54.4 195.2 137.6 246.4C185.6 620.8 48 790.4 32 992l64 0C112 777.6 291.2 608 512 608c0 0 0 0 0 0l0 0c3.2 0 6.4 0 9.6 0C681.6 608 809.6 480 809.6 320zM521.6 544c-124.8 0-224-99.2-224-224 0-124.8 99.2-224 224-224 124.8 0 224 99.2 224 224C745.6 444.8 646.4 544 521.6 544z" p-id="2871" fill="#FFE11A"></path></svg>